<svg width="46" height="64" fill="none" xmlns="http://www.w3.org/2000/svg"><path d="M41.12 12.952l-1.576-1.26V0H6.052v11.692l-1.575 1.26A11.87 11.87 0 000 22.267V64h45.596V22.267a11.87 11.87 0 00-4.476-9.315zM9.802 3.75h25.992v6.152H9.802V3.75zm32.044 56.5H3.75V47.492h3.048v-3.75H3.75v-4.916h3.048v-3.75H3.75v-4.917h3.048v-3.75H3.75v-4.142a8.138 8.138 0 013.07-6.386l2.785-2.23h26.386l2.786 2.23a8.146 8.146 0 012.574 3.578H12.513v34.984h29.333v5.807zm0-37.042v27.485H16.263V23.208h25.583z" fill="#fff"/><path d="M28.968 35.075l3.39-5.085-3.12-2.08-7.277 10.915h8l-3.39 5.085 3.12 2.08 7.277-10.915h-8z" fill="#fff"/></svg>