<svg width="81" height="63" fill="none" xmlns="http://www.w3.org/2000/svg"><path d="M13.558 19.488H4.34v4.703h9.218v-4.703zm0 18.812H4.34v4.702h9.218v-4.703zm0-9.406H0v4.702h13.558v-4.702zM49.26.245c-17.093 0-31 13.907-31 31s13.907 31 31 31c17.094 0 31.001-13.907 31.001-31s-13.907-31-31-31zm0 57.297c-14.5 0-26.296-11.797-26.296-26.297S34.76 4.948 49.26 4.948s26.297 11.797 26.297 26.297S63.76 57.542 49.26 57.542z" fill="#fff"/><path d="M50.78 32.413v-15.19h-4.704V34.9l12.12 8.258 2.648-3.886-10.065-6.859z" fill="#fff"/></svg>