<svg width="64" height="64" fill="none" xmlns="http://www.w3.org/2000/svg"><g clip-path="url(#clip0_1_253)" fill="#fff"><path d="M58.82 16.479c-.033-1.728-.065-3.36-.065-4.94a2.24 2.24 0 00-2.24-2.24C46.935 9.3 39.64 6.546 33.56.634a2.24 2.24 0 00-3.123 0C24.357 6.546 17.064 9.3 7.485 9.3a2.24 2.24 0 00-2.24 2.24c0 1.58-.032 3.213-.065 4.941-.307 16.08-.727 38.103 26.085 47.397a2.237 2.237 0 001.467 0C59.547 54.584 59.127 32.56 58.819 16.48zM31.998 59.383C9.004 51.029 9.35 32.73 9.659 16.566c.02-.97.037-1.91.05-2.833 8.973-.378 16.148-3.097 22.29-8.448 6.143 5.35 13.319 8.07 22.292 8.448.013.922.03 1.861.05 2.831.307 16.165.655 34.465-22.342 42.819z"/><path d="M39.713 24.218L28.901 35.03l-4.614-4.614a2.24 2.24 0 00-3.168 3.168l6.198 6.198a2.236 2.236 0 003.168 0L42.88 27.386a2.24 2.24 0 10-3.168-3.168z"/></g><defs><clipPath id="clip0_1_253"><path fill="#fff" d="M0 0h64v64H0z"/></clipPath></defs></svg>