<svg width="62" height="62" fill="none" xmlns="http://www.w3.org/2000/svg"><path d="M56.55 5.086h-1.937v-3.27a1.816 1.816 0 00-3.633 0v3.27H40.082v-3.27a1.816 1.816 0 10-3.633 0v3.27H25.551v-3.27a1.816 1.816 0 00-3.633 0v3.27H11.02v-3.27a1.816 1.816 0 10-3.633 0v3.27H5.449A5.455 5.455 0 000 10.536V56.55A5.455 5.455 0 005.45 62h51.1A5.455 5.455 0 0062 56.55V10.536a5.455 5.455 0 00-5.45-5.45zm1.817 51.465a1.819 1.819 0 01-1.816 1.816H5.449a1.819 1.819 0 01-1.816-1.816V23.25h54.734v33.3zm0-36.934H3.633v-9.082c0-1.001.815-1.816 1.816-1.816h1.938v3.27a1.816 1.816 0 003.633 0v-3.27h10.898v3.27a1.816 1.816 0 003.633 0v-3.27h10.898v3.27a1.816 1.816 0 003.633 0v-3.27H50.98v3.27a1.816 1.816 0 003.633 0v-3.27h1.938c1.001 0 1.816.815 1.816 1.816v9.082z" fill="#fff"/><path d="M23.262 47.469a2.43 2.43 0 01-2.421-2.422 1.817 1.817 0 00-3.633 0c0 .282.02.565.058.842.415 2.972 2.993 5.212 5.997 5.212a6.062 6.062 0 006.054-6.054 6.034 6.034 0 00-1.736-4.238 6.034 6.034 0 001.736-4.239 6.062 6.062 0 00-6.055-6.054 6.065 6.065 0 00-5.94 4.883 1.816 1.816 0 103.564.7 2.425 2.425 0 012.377-1.95 2.425 2.425 0 012.421 2.421 2.425 2.425 0 01-2.422 2.422 1.816 1.816 0 100 3.633 2.425 2.425 0 012.422 2.422 2.425 2.425 0 01-2.422 2.422zm15.004 3.633a6.534 6.534 0 006.526-6.527v-7.533a6.534 6.534 0 00-6.526-6.526 6.534 6.534 0 00-6.527 6.526v7.533a6.534 6.534 0 006.527 6.527zm-2.894-14.06a2.897 2.897 0 012.894-2.894 2.897 2.897 0 012.893 2.894v7.533a2.897 2.897 0 01-2.893 2.894 2.897 2.897 0 01-2.894-2.894v-7.533z" fill="#fff"/></svg>