<svg width="63" height="63" fill="none" xmlns="http://www.w3.org/2000/svg"><path d="M17.409 52.257l-1.413 1.884a5.507 5.507 0 00-.523 5.798A5.507 5.507 0 0020.426 63h22.148a5.507 5.507 0 004.953-3.06 5.507 5.507 0 00-.523-5.8l-1.413-1.883C55.698 47.125 63 36.502 63 23.994V22.15H50.426a15.726 15.726 0 013.43-5.174l7.522-7.522a5.543 5.543 0 000-7.83 5.543 5.543 0 00-7.83 0l-7.523 7.522c-1.644 1.643-3.858 2.985-6.235 3.777a19.425 19.425 0 00-7.555 4.67l-4.558 4.557H0v1.845c0 12.472 7.278 23.12 17.409 28.263zm26.642 4.099c.428.571.494 1.294.174 1.932a1.812 1.812 0 01-1.65 1.02h-22.15a1.812 1.812 0 01-1.65-1.02 1.812 1.812 0 01.174-1.932l1.943-2.59a31.115 31.115 0 0010.608 1.85c3.667 0 7.244-.634 10.608-1.852l1.943 2.59zm-9.206-36.154a15.716 15.716 0 016.112-3.778c2.953-.984 5.608-2.599 7.678-4.67l7.523-7.522c.72-.72 1.89-.72 2.61 0s.72 1.89 0 2.61l-7.523 7.523a19.426 19.426 0 00-4.669 7.555c-.025.076-.052.153-.079.229h-13.6l1.948-1.947zm24.404 5.637c-.95 14.544-13.033 26.087-27.749 26.087S4.701 40.383 3.751 25.839H59.25z" fill="#fff"/><path d="M13.229 18.457h6.618l3.15 3.15 2.61-2.61-3.15-3.15V9.229c0-5.09-4.14-9.229-9.229-9.229H4v9.229c0 5.088 4.14 9.228 9.229 9.228zM7.69 3.691h5.538a5.543 5.543 0 015.537 5.538v2.926l-4.232-4.232-2.61 2.61 4.231 4.233h-2.927A5.543 5.543 0 017.69 9.229V3.69z" fill="#fff"/></svg>