<svg width="40" height="56" fill="none" xmlns="http://www.w3.org/2000/svg"><path d="M39.98 9.39l-4.057-6.11h2.241V0H1.836v3.281h2.241L.02 9.39v37.222l4.057 6.108H1.836V56h36.328v-3.281h-2.241l4.057-6.108V9.389zm-8.294-6.11l3.27 4.922H5.044l3.27-4.922h23.372zm-9.87 41.235V39.9c7.195-3.756 9.443-12.187 4.954-18.472-2.683-3.757-6.364-4.857-6.77-5.09-.385.22-4.096 1.346-6.77 5.09C8.751 27.7 10.972 36.136 18.184 39.9v4.615H3.652V11.484h32.696v33.032H21.816zm-3.632-8.65c-2.268-1.844-3.633-4.507-3.633-7.331 0-3.515 2.112-6.78 5.449-8.526 3.337 1.746 5.45 5.011 5.45 8.526 0 2.824-1.366 5.487-3.634 7.33V29.64h-3.632v6.224zm-9.87 16.853l-3.27-4.922h29.912l-3.27 4.922H8.314z" fill="#fff"/></svg>