<svg width="60" height="60" fill="none" xmlns="http://www.w3.org/2000/svg"><path d="M44 3.47A29.994 29.994 0 0030.005.004 29.82 29.82 0 0017.8 2.592l1.52 3.423a26.183 26.183 0 0127.839 4.17L35.3 22.044l-7.358-7.365-2.653 2.652-3.976-3.978 2.651-2.65-2.65-2.651L8.058 21.306l2.65 2.65 2.651-2.65 3.978 3.976-2.652 2.653 7.365 7.367-11.857 11.855a26.183 26.183 0 01-3.408-29.409l-3.312-1.75C-4.258 30.647 1.35 48.79 16 56.522c14.65 7.732 32.794 2.124 40.526-12.526C64.258 29.347 58.65 11.202 44 3.47zm-8.697 23.874l2.66 2.653-4.297 4.297 2.651 2.65 4.186-4.19-.967 6.78-6.96.993-5.229-5.227 7.956-7.956zM16.01 18.655l2.653-2.652 3.976 3.978-2.65 2.65-3.979-3.976zm3.976 9.28l7.956-7.956 4.717 4.715-7.956 7.956-4.717-4.715zM47.24 49.809a26.206 26.206 0 01-17.235 6.433 26.099 26.099 0 01-17.16-6.434l11.857-11.857 6.561 6.561 9.28-1.325 4.079 4.079 2.65-2.65-4.079-4.08 1.326-9.28-6.562-6.56 11.857-11.858c9.498 10.92 8.346 27.473-2.575 36.97z" fill="#fff"/><path d="M16.242 7.646l-1.97-3.187a30.25 30.25 0 00-3.251 2.315l2.373 2.904a26.814 26.814 0 012.848-2.032zm-5.403 4.42L8.104 9.5a30.01 30.01 0 00-2.533 3.095l3.063 2.175a26.457 26.457 0 012.205-2.706z" fill="#fff"/></svg>