<svg width="60" height="60" fill="none" xmlns="http://www.w3.org/2000/svg"><g clip-path="url(#clip0_1_176)" fill="#fff"><path d="M56.636 11.695l-1.177-3.059-2.064 2.546c-.065.081-6.592 8.028-15.179 9.254-1.63.233-3.151.536-4.622.875.404-6.676-2.322-13.046-8.111-18.976L23.195 0l-.89 3.148c-.022.066-1.996 6.864-7.013 9.925-5.496 3.364-8.997 7.082-10.683 11.358a16.678 16.678 0 00-.122 12.664 11.333 11.333 0 006.128 6.182c.272.104.55.194.832.269a17.26 17.26 0 00.492 5.627 33.68 33.68 0 01-2.91.134 24.157 24.157 0 01-7.409-1.014L.318 51.857a27.221 27.221 0 008.718 1.242 37.408 37.408 0 004.391-.275 14.293 14.293 0 002.274 2.992 15.654 15.654 0 0011.34 4.17 29.645 29.645 0 0017.625-6.317l.555-.436c5.212-4.082 21.05-16.484 11.415-41.537zM12.083 39.776l-.03-.01a7.48 7.48 0 01-4.092-4.17 12.876 12.876 0 01.163-9.766c1.376-3.49 4.36-6.603 9.137-9.522a20.657 20.657 0 007.517-9.074 19.483 19.483 0 014.866 15.162 27.99 27.99 0 00-11.259 6.618 23.987 23.987 0 00-6.302 10.762zM42.892 50.24l-.569.449c-7.708 6.104-19.115 7.27-23.938 2.447-.319-.32-.617-.66-.89-1.02 7.756-1.766 17.211-6.334 26.922-16.824l-2.782-2.575c-9.495 10.258-18.624 14.45-25.915 15.92a13.551 13.551 0 01-.449-5.46 19.52 19.52 0 015.792-11.485c3.906-3.908 9.694-6.363 17.69-7.504a29.33 29.33 0 0015.35-8.242c6.437 20.474-6.287 30.439-11.21 34.294z"/><path d="M44.082 29.942l2.898 2.443a94.722 94.722 0 002.43-3.015l-3.003-2.314a88.242 88.242 0 01-2.325 2.886z"/></g><defs><clipPath id="clip0_1_176"><path fill="#fff" d="M0 0h60v60H0z"/></clipPath></defs></svg>