<svg width="50" height="64" fill="none" xmlns="http://www.w3.org/2000/svg"><path d="M41.58 25.004l-.34-.336-.063-.052c-4.93-4.092-7.326-10.23-6.576-16.843L35.482 0 27.92 4.081A27.338 27.338 0 0013.7 25.436L5.21 22.96l-.662 1.513C1.879 30.566.559 36.417.627 41.862.702 47.8 3.082 53.367 7.33 57.54A22.41 22.41 0 0023.124 64h3.637c12.336 0 22.428-9.94 22.497-22.159.038-6.885-2.474-12.393-7.678-16.837zM24.033 60.24c-4.591 0-8.373-3.717-8.43-8.285-.023-1.873.35-3.885 1.113-6.001l5.334 1.557.023-2.483a10.848 10.848 0 014.81-8.914c-.008 3.667 1.518 7.018 4.31 9.368l.11.108.105.096c2.002 1.7 2.887 3.636 2.873 6.278-.026 4.564-3.807 8.276-8.43 8.276h-1.818zm12.672-2.839a11.9 11.9 0 001.334-5.416c.021-3.725-1.334-6.707-4.142-9.116l-.175-.173-.063-.052c-2.248-1.867-3.298-4.563-2.954-7.592l.643-5.674-5.364 2.895a14.609 14.609 0 00-7.445 10.298l-3.992-1.166-.662 1.513c-1.39 3.17-2.076 6.227-2.04 9.084.024 1.894.48 3.719 1.321 5.36-5.198-3.274-8.698-9.02-8.78-15.549-.056-4.46.942-9.268 2.968-14.314l9.948 2.904.023-2.483A23.576 23.576 0 0129.704 7.39l1.233-.666-.07.627c-.893 7.866 1.966 15.188 7.845 20.104l.275.272.105.096c4.404 3.74 6.44 8.188 6.407 13.998-.037 6.553-3.548 12.316-8.794 15.582z" fill="#fff"/></svg>